<svg width="48" height="48" xmlns="http://www.w3.org/2000/svg">

 <g>
  <title>background</title>
  <rect fill="none" id="canvas_background" height="402" width="582" y="-1" x="-1"/>
 </g>
 <g>
  <title>Layer 1</title>
  <circle id="svg_1" r="21.5" fill="#f65261" cy="24" cx="24"/>
  <path id="svg_2" fill="#0277BD" d="m24,46c-12.131,0 -22,-9.869 -22,-22s9.869,-22 22,-22c6.219,0 12.175,2.65 16.342,7.271c0.186,0.205 0.169,0.521 -0.036,0.706c-0.206,0.185 -0.522,0.168 -0.706,-0.036c-3.978,-4.411 -9.663,-6.941 -15.6,-6.941c-11.579,0 -21,9.42 -21,21s9.421,21 21,21s21,-9.42 21,-21c0,-2.299 -0.369,-4.56 -1.098,-6.72c-0.089,-0.262 0.052,-0.545 0.313,-0.633c0.268,-0.088 0.546,0.052 0.634,0.314c0.764,2.263 1.151,4.631 1.151,7.039c0,12.131 -9.869,22 -22,22z"/>
  <path id="svg_3" fill="#FFFFFF" d="m24,45c-11.579,0 -21,-9.42 -21,-21s9.421,-21 21,-21c5.834,0 11.454,2.458 15.419,6.743c0.188,0.203 0.175,0.519 -0.027,0.707c-0.203,0.187 -0.52,0.176 -0.707,-0.028c-3.776,-4.081 -9.128,-6.422 -14.685,-6.422c-11.028,0 -20,8.972 -20,20s8.972,20 20,20s20,-8.972 20,-20c0,-2.03 -0.303,-4.031 -0.899,-5.948c-0.082,-0.264 0.065,-0.544 0.329,-0.626c0.263,-0.08 0.545,0.066 0.626,0.329c0.627,2.013 0.944,4.114 0.944,6.245c0,11.58 -9.421,21 -21,21z"/>
  <path id="svg_6" fill="#64ffda" d="m21.584,33.834c0.892,0.888 2.438,0.888 3.331,0l19.387,-19.309c0.931,-0.926 0.931,-2.433 0,-3.359c-0.892,-0.888 -2.438,-0.888 -3.33,0l-16.965,16.895c-0.399,0.398 -1.116,0.398 -1.516,0l-6.463,-6.436c-0.446,-0.444 -1.037,-0.688 -1.665,-0.688s-1.22,0.244 -1.665,0.688c-0.931,0.926 -0.931,2.433 0,3.359l8.886,8.85z"/>
  <path id="svg_7" fill="#0277BD" d="m23.249,35.005c-0.735,0 -1.471,-0.272 -2.018,-0.817l0,0l-8.886,-8.85c-0.545,-0.542 -0.846,-1.265 -0.846,-2.035c0,-0.769 0.301,-1.491 0.846,-2.033c1.077,-1.074 2.954,-1.076 4.035,0l6.463,6.436c0.205,0.204 0.606,0.205 0.81,0l16.966,-16.896c1.094,-1.089 2.941,-1.089 4.035,0c0.545,0.542 0.846,1.265 0.846,2.034c0,0.769 -0.301,1.491 -0.846,2.033l-19.386,19.311c-0.547,0.545 -1.284,0.817 -2.019,0.817zm-8.886,-13.568c-0.495,0 -0.961,0.193 -1.312,0.542c-0.355,0.354 -0.552,0.824 -0.552,1.325s0.195,0.972 0.551,1.325l8.886,8.851c0.699,0.695 1.927,0.696 2.626,0l19.387,-19.31c0.354,-0.353 0.551,-0.824 0.551,-1.325s-0.195,-0.972 -0.551,-1.325c-0.699,-0.696 -1.926,-0.697 -2.625,0l-16.965,16.896c-0.59,0.59 -1.63,0.59 -2.222,0l-6.462,-6.436c-0.351,-0.351 -0.817,-0.543 -1.312,-0.543z"/>
  <path id="svg_8" fill="#FFFFFF" d="m13,23.804c-0.276,0 -0.5,-0.224 -0.5,-0.5c0,-0.5 0.196,-0.971 0.552,-1.325c0.351,-0.35 0.816,-0.542 1.312,-0.542c0.276,0 0.5,0.224 0.5,0.5s-0.224,0.5 -0.5,0.5c-0.229,0 -0.443,0.089 -0.606,0.25c-0.165,0.166 -0.257,0.385 -0.257,0.617c-0.001,0.277 -0.225,0.5 -0.501,0.5z"/>
  <path id="svg_9" fill="#FFFFFF" d="m26.161,27.828c-0.128,0 -0.257,-0.049 -0.354,-0.147c-0.194,-0.196 -0.194,-0.512 0.002,-0.708l14.07,-14.013c0.195,-0.194 0.512,-0.195 0.707,0.001c0.194,0.196 0.194,0.512 -0.002,0.708l-14.07,14.013c-0.098,0.097 -0.225,0.146 -0.353,0.146z"/>
 </g>
</svg>